<svg width="32" height="32" viewBox="0 0 32 32" xmlns="http://www.w3.org/2000/svg">
  <defs>
    <clipPath id="brain-fill">
      <path d="M16 4C20 4 24 6 26 10C28 14 26 18 24 20C26 22 28 26 24 28C20 28 16 26 16 28C16 26 12 28 8 28C4 26 6 22 8 20C6 18 4 14 6 10C8 6 12 4 16 4Z" />
    </clipPath>
  </defs>
  <!-- Brain outline -->
  <path
    d="M16 4C20 4 24 6 26 10C28 14 26 18 24 20C26 22 28 26 24 28C20 28 16 26 16 28C16 26 12 28 8 28C4 26 6 22 8 20C6 18 4 14 6 10C8 6 12 4 16 4Z"
    fill="white"
    stroke="#1B2951"
    stroke-width="2"
  />
  <!-- 60% fill pattern -->
  <g clip-path="url(#brain-fill)">
    <rect x="0" y="12.8" width="32" height="19.2" fill="#1B2951" />
    <path
      d="M0 12.8 Q8 10.8 16 12.8 T32 12.8 L32 13.8 Q24 15.8 16 13.8 T0 13.8 Z"
      fill="white"
    />
  </g>
</svg>
